<svg width="23" height="23" viewBox="0 0 23 23" fill="none" xmlns="http://www.w3.org/2000/svg">
<path d="M12.505 0.04788C12.4392 0.048524 12.3742 0.0621263 12.3138 0.0879083C12.2533 0.11369 12.1985 0.151146 12.1525 0.198132C12.1065 0.245118 12.0702 0.300711 12.0457 0.361731C12.0213 0.42275 12.0091 0.487998 12.0098 0.553739C12.0533 4.23132 12.2682 6.82098 13.7735 8.55472C15.2788 10.2885 17.9162 10.9437 22.4464 10.9932C22.5163 10.994 22.5856 10.9802 22.6499 10.9525C22.7141 10.9249 22.7719 10.884 22.8194 10.8327C22.8669 10.7813 22.903 10.7206 22.9256 10.6544C22.9481 10.5881 22.9565 10.5179 22.9503 10.4483C22.4501 4.94004 18.063 0.551529 12.5548 0.0498331C12.5382 0.0483546 12.5216 0.0477027 12.505 0.04788ZM10.4503 0.0508097C10.4375 0.0509762 10.4248 0.0516277 10.4122 0.0527628C4.9195 0.569103 0.548439 4.95097 0.0498721 10.4483C0.0435904 10.5179 0.0519945 10.5881 0.0745411 10.6544C0.0970878 10.7206 0.133276 10.7813 0.180766 10.8327C0.228256 10.884 0.285993 10.9249 0.350245 10.9525C0.414497 10.9802 0.483835 10.994 0.553778 10.9932C5.07055 10.9412 7.70111 10.2846 9.20124 8.55081C10.7014 6.817 10.9143 4.22964 10.9581 0.556669C10.9589 0.489856 10.9462 0.423563 10.921 0.361707C10.8957 0.299851 10.8583 0.243686 10.811 0.196529C10.7636 0.149373 10.7073 0.112183 10.6454 0.0871543C10.5834 0.062126 10.5171 0.0497678 10.4503 0.0508097ZM13.0538 1.15335C17.6056 1.83381 21.1764 5.40808 21.8497 9.96194C17.8498 9.85581 15.669 9.21319 14.5284 7.89944C13.4069 6.60779 13.1259 4.383 13.0538 1.15335ZM9.91511 1.15725C9.84289 4.38217 9.5617 6.60518 8.4444 7.89651C7.30807 9.20986 5.13589 9.85236 1.15046 9.96097C1.82244 5.41802 5.37843 1.84923 9.91511 1.15725ZM0.553778 12.0069C0.483835 12.006 0.414497 12.0199 0.350245 12.0476C0.285993 12.0752 0.228256 12.116 0.180766 12.1674C0.133276 12.2187 0.0970878 12.2795 0.0745411 12.3457C0.0519945 12.4119 0.0435904 12.4821 0.0498721 12.5518C0.548952 18.0495 4.91947 22.4315 10.4122 22.9473C10.4819 22.9537 10.5522 22.9454 10.6186 22.9229C10.6849 22.9005 10.7458 22.8643 10.7972 22.8168C10.8487 22.7693 10.8896 22.7115 10.9173 22.6472C10.945 22.5828 10.9589 22.5134 10.9581 22.4434C10.9143 18.7704 10.7014 16.1831 9.20124 14.4492C7.70111 12.7154 5.07056 12.0587 0.553778 12.0069ZM22.4464 12.0069C17.9162 12.0564 15.2787 12.7116 13.7735 14.4453C12.2683 16.1791 12.0536 18.7688 12.0098 22.4463C12.009 22.5163 12.0229 22.5856 12.0505 22.6499C12.0782 22.7141 12.119 22.7718 12.1703 22.8193C12.2217 22.8668 12.2825 22.903 12.3487 22.9256C12.4149 22.9481 12.4851 22.9565 12.5548 22.9502C18.0625 22.4485 22.4496 18.061 22.9503 12.5528C22.9567 12.483 22.9484 12.4127 22.9259 12.3464C22.9034 12.28 22.8673 12.2192 22.8198 12.1677C22.7723 12.1162 22.7145 12.0753 22.6501 12.0476C22.5858 12.0199 22.5164 12.006 22.4464 12.0069ZM21.8497 13.0381C21.176 17.592 17.6052 21.1662 13.0538 21.8467C13.1261 18.617 13.407 16.3923 14.5284 15.1006C15.669 13.7869 17.8498 13.1442 21.8497 13.0381ZM1.15046 13.0391C5.13588 13.1475 7.30807 13.7901 8.4444 15.1035C9.5617 16.3949 9.84289 18.6179 9.91511 21.8428C5.37848 21.1512 1.8228 17.5826 1.15046 13.0391Z" fill="#001517"/>
</svg>
