<svg width="40" height="40" viewBox="0 0 40 40" fill="none" xmlns="http://www.w3.org/2000/svg">
<path d="M18.8889 30H21.1111V21.1111H30V18.8889H21.1111V10H18.8889V18.8889H10V21.1111H18.8889V30ZM20 40C17.2326 40 14.6326 39.4756 12.2 38.4267C9.76741 37.3778 7.65111 35.9526 5.85111 34.1511C4.05111 32.3496 2.62593 30.2341 1.57556 27.8044C0.525185 25.3748 0 22.7756 0 20.0067C0 17.2378 0.525185 14.6378 1.57556 12.2067C2.62444 9.77259 4.04741 7.65481 5.84444 5.85333C7.64148 4.05185 9.75778 2.62593 12.1933 1.57556C14.6289 0.525185 17.2289 0 19.9933 0C22.7578 0 25.3578 0.525185 27.7933 1.57556C30.2289 2.62593 32.3467 4.05111 34.1467 5.85111C35.9467 7.65111 37.3726 9.76741 38.4244 12.2C39.4763 14.6326 40.0015 17.2326 40 20V36.4111C40 37.3978 39.6481 38.2422 38.9444 38.9444C38.2407 39.6467 37.3963 39.9985 36.4111 40H20ZM20 37.7778C24.963 37.7778 29.1667 36.0556 32.6111 32.6111C36.0556 29.1667 37.7778 24.963 37.7778 20C37.7778 15.037 36.0556 10.8333 32.6111 7.38889C29.1667 3.94444 24.963 2.22222 20 2.22222C15.037 2.22222 10.8333 3.94444 7.38889 7.38889C3.94444 10.8333 2.22222 15.037 2.22222 20C2.22222 24.963 3.94444 29.1667 7.38889 32.6111C10.8333 36.0556 15.037 37.7778 20 37.7778Z" fill="#00B9CB"/>
</svg>
