<svg width="21" height="21" viewBox="0 0 21 21" fill="none" xmlns="http://www.w3.org/2000/svg">
<path d="M2.5 0C1.12524 0 0 1.12524 0 2.5V18.5C0 19.8748 1.12524 21 2.5 21H18.5C19.8748 21 21 19.8748 21 18.5V2.5C21 1.12524 19.8748 0 18.5 0H2.5ZM2.5 1H18.5C19.3342 1 20 1.66576 20 2.5V18.5C20 19.3342 19.3342 20 18.5 20H2.5C1.66576 20 1 19.3342 1 18.5V2.5C1 1.66576 1.66576 1 2.5 1ZM10.5 2C8.02038 2 6 4.02038 6 6.5C6 8.97962 8.02038 11 10.5 11C12.9796 11 15 8.97962 15 6.5C15 4.02038 12.9796 2 10.5 2ZM10.5 3C12.4394 3 14 4.56062 14 6.5C14 8.43938 12.4394 10 10.5 10C8.56062 10 7 8.43938 7 6.5C7 4.56062 8.56062 3 10.5 3ZM10.5 4C9.12521 4 8 5.12521 8 6.5C8 7.87479 9.12521 9 10.5 9C11.8748 9 13 7.87479 13 6.5C13 5.12521 11.8748 4 10.5 4ZM10.5 5C11.3343 5 12 5.66565 12 6.5C12 7.33435 11.3343 8 10.5 8C9.66565 8 9 7.33435 9 6.5C9 5.66565 9.66565 5 10.5 5ZM14.4756 10.748C14.1864 10.7518 13.8957 10.8382 13.6426 11.0137H13.6416L13.6406 11.0146C12.7164 11.6604 11.6342 12 10.5 12C9.36865 12 8.28837 11.6619 7.36426 11.0195C6.68881 10.5491 5.74544 10.7189 5.27637 11.3945C4.80659 12.0698 4.97625 13.0127 5.65137 13.4824C6.22708 13.8826 6.87915 14.1129 7.52344 14.3555L5.43945 16.4395C4.85792 17.021 4.85792 17.979 5.43945 18.5605C5.7302 18.8513 6.11705 19 6.5 19C6.88295 19 7.2698 18.8513 7.56055 18.5605L10.5 15.6211L13.4395 18.5605C13.7302 18.8513 14.117 19 14.5 19C14.883 19 15.2698 18.8513 15.5605 18.5605C16.1421 17.979 16.1421 17.021 15.5605 16.4395L13.5303 14.4082C14.1679 14.1656 14.7885 13.8731 15.3584 13.4756C16.0324 13.0049 16.2012 12.0616 15.7305 11.3867C15.4953 11.0494 15.1414 10.839 14.7627 10.7715C14.668 10.7546 14.572 10.7468 14.4756 10.748ZM14.5879 11.75C14.7132 11.7722 14.8299 11.8438 14.9102 11.959C15.0714 12.1902 15.0171 12.494 14.7861 12.6553C14.082 13.1464 13.3077 13.5036 12.4912 13.7275L11.6621 13.9551L12.2695 14.5635L14.8535 17.1465C15.053 17.3459 15.053 17.6541 14.8535 17.8535C14.7533 17.9538 14.629 18 14.5 18C14.371 18 14.2467 17.9538 14.1465 17.8535L10.5 14.207L6.85352 17.8535C6.75326 17.9538 6.62905 18 6.5 18C6.37095 18 6.24674 17.9538 6.14648 17.8535C5.94702 17.6541 5.94702 17.3459 6.14648 17.1465L9.33789 13.9551L8.50879 13.7275C7.69526 13.504 6.92432 13.1489 6.22266 12.6611C5.99078 12.4998 5.93644 12.1976 6.09766 11.9658V11.9648C6.25758 11.7345 6.56241 11.6793 6.79297 11.8398V11.8408C7.88286 12.5984 9.16835 13 10.5 13C11.8344 13 13.1224 12.5966 14.2129 11.835C14.3289 11.7545 14.4626 11.7278 14.5879 11.75Z" fill="#001517"/>
</svg>
